<svg xmlns="http://www.w3.org/2000/svg" version="1.1" xmlns:xlink="http://www.w3.org/1999/xlink" xmlns:svgjs="http://svgjs.com/svgjs" width="1440" height="560" preserveAspectRatio="none" viewBox="0 0 1440 560"><g mask="url(&quot;#SvgjsMask1004&quot;)" fill="none"><rect width="1440" height="560" x="0" y="0" fill="#0e2a47"></rect><path d="M0,583.062C104.891,554.462,153.032,437.79,236.852,368.549C307.867,309.886,396.046,278.736,454.539,207.581C526.917,119.536,610.502,25.947,612.172,-88.017C613.902,-206.079,551.589,-323.008,463.464,-401.594C379.253,-476.689,260.239,-497.56,147.511,-502.378C51.28,-506.491,-30.099,-441.338,-125.308,-426.759C-241.592,-408.953,-392.441,-495.699,-470.553,-407.736C-548.319,-320.164,-463.238,-180.306,-447.182,-64.295C-435.57,19.604,-405,94.612,-389.504,177.881C-367.648,295.332,-420.286,439.023,-337.493,525.149C-256.755,609.136,-112.398,613.708,0,583.062" fill="#0b2239"></path><path d="M1440 1003.806C1552.035 1009.233 1662.17 1111.129 1764.088 1064.29 1864.655 1018.072 1896.909 888.422 1924.366 781.203 1948.774 685.89 1931.048 588.576 1910.5529999999999 492.345 1891.288 401.89099999999996 1856.632 319.498 1809.1309999999999 240.14600000000002 1752.682 145.84699999999998 1713.675 18.04499999999996 1608.182-12.774000000000001 1502.676-43.59699999999998 1398.021 37.559999999999945 1302.635 92.178 1224.372 136.99099999999999 1178.905 216.24 1108.908 273.107 1019.1800000000001 346.003 857.834 359.745 834.036 472.876 810.695 583.831 953.2850000000001 657.889 1006.9549999999999 757.765 1055.998 849.029 1045.4 982.658 1135.482 1033.84 1225.999 1085.269 1336.015 998.769 1440 1003.806" fill="#113255"></path></g><defs><mask id="SvgjsMask1004"><rect width="1440" height="560" fill="#ffffff"></rect></mask></defs></svg>